<svg width="38" height="39" viewBox="0 0 38 39" fill="none" xmlns="http://www.w3.org/2000/svg">
<ellipse cx="18.7277" cy="19.3817" rx="18.5012" ry="18.9222" fill="#0D5C9B"/>
<path fill-rule="evenodd" clip-rule="evenodd" d="M10.5078 18.3303C10.5078 14.2305 14.208 10.9717 18.7306 10.9717C23.2531 10.9717 26.9533 14.2305 26.9533 18.3303C26.9533 20.2225 26.131 21.9045 24.8976 23.166V27.7914L19.3473 25.6889H18.7306C14.208 25.6889 10.5078 22.4301 10.5078 18.3303ZM22.8419 24.7428V22.325C22.8419 22.325 24.8976 20.643 24.8976 18.3303C24.8976 15.3869 22.1224 13.0741 18.7306 13.0741C15.3387 13.0741 12.5635 15.3869 12.5635 18.3303C12.5635 21.2738 15.3387 23.5865 18.7306 23.5865H19.6556L22.8419 24.7428Z" fill="#EEF2FF"/>
</svg>
