<svg width="25" height="24" viewBox="0 0 25 24" fill="none" xmlns="http://www.w3.org/2000/svg">
<path d="M13.7517 15L24.7812 8.00002L12.2516 0.136025C11.9358 -0.0479748 11.5438 -0.0449748 11.2299 0.143025L0.716797 7.00003L13.7517 15Z" fill="#C0E8FB"/>
<path d="M13.7517 15L0.716797 7V16C0.716797 16.355 0.906304 16.685 1.21413 16.864L13.7517 24V15Z" fill="#04365B"/>
<path d="M13.7517 15L0.716797 7V16C0.716797 16.355 0.906304 16.685 1.21413 16.864L13.7517 24V15Z" fill="black" fill-opacity="0.2"/>
<path d="M13.7517 15L0.716797 7V16C0.716797 16.355 0.906304 16.685 1.21413 16.864L13.7517 24V15Z" fill="black" fill-opacity="0.2"/>
<path d="M13.7517 15L0.716797 7V16C0.716797 16.355 0.906304 16.685 1.21413 16.864L13.7517 24V15Z" fill="black" fill-opacity="0.2"/>
<path d="M13.7515 15.047V24L24.3528 16.819C24.6215 16.632 24.781 16.326 24.781 16V8L13.7515 15.047Z" fill="#4FA7DD"/>
</svg>
