<svg width="48" height="48" viewBox="0 0 48 48" fill="none" xmlns="http://www.w3.org/2000/svg">
<circle cx="24" cy="24" r="24" fill="#096CB5"/>
<path opacity="0.88" d="M19.0792 22.8215L15.7783 23.2854C15.3226 23.3494 15.0021 23.7497 15.0625 24.1794L16.3747 33.5162C16.4351 33.946 16.8535 34.2424 17.3093 34.1783L21.4354 33.5985L20.0138 23.4836C19.9534 23.0539 19.535 22.7574 19.0792 22.8215Z" fill="#064D82"/>
<path d="M32.7458 18.9551C32.4994 18.9122 32.2486 18.9081 32.0019 18.9428L27.051 19.6386L26.6879 17.0553C26.2251 13.7624 23.9535 13.1 22.8168 13.2088C22.5913 13.2321 22.3852 13.3487 22.2446 13.5324C22.1049 13.7179 22.0447 13.9557 22.078 14.1907L22.6393 18.1846L19.9195 22.7817L21.4398 33.599L31.5315 32.1807C32.6212 32.0328 33.48 31.1559 33.6434 30.024L34.8391 21.9529C34.9399 21.2708 34.776 20.5718 34.3834 20.0095C33.9908 19.4473 33.4018 19.068 32.7458 18.9551Z" fill="url(#paint0_linear_185_14)"/>
<defs>
<linearGradient id="paint0_linear_185_14" x1="18.6562" y1="13.793" x2="21.4398" y2="33.599" gradientUnits="userSpaceOnUse">
<stop stop-color="white"/>
<stop offset="1" stop-color="#A5B4FC"/>
</linearGradient>
</defs>
</svg>
