<svg width="25" height="24" viewBox="0 0 25 24" fill="none" xmlns="http://www.w3.org/2000/svg">
<path d="M13.7515 6.06814C16.2767 6.49311 18.27 8.48233 18.6971 11.001H24.781C24.2935 5.1549 19.6127 0.486257 13.7515 0.00100708V6.06814Z" fill="#F4F4F4"/>
<path d="M18.7725 13C18.2969 15.833 15.8453 18 12.8923 18C11.4923 18 10.2068 17.51 9.18799 16.696L4.72754 20.731C6.86473 22.752 9.73323 24 12.8923 24C19.1407 24 24.2727 19.149 24.7812 13H18.7725Z" fill="#A8ADB1"/>
<path d="M7.67441 15.0068C7.08182 14.0862 6.73289 12.9983 6.73289 11.8292C6.73289 8.89221 8.9057 6.45311 11.7463 5.97895V0C5.5798 0.506825 0.716797 5.61368 0.716797 11.8292C0.716797 14.5247 1.64127 17.0044 3.17938 19L7.67441 15.0068Z" fill="#C0E8FB"/>
</svg>
